<?xml version="1.0" encoding="UTF-8" standalone="no"?>
<svg
   width="30"
   height="30"
   viewBox="0 0 30 30"
   version="1.1"
   id="svg5"
   xmlns="http://www.w3.org/2000/svg"
   xmlns:svg="http://www.w3.org/2000/svg">
   <style>
   g {
   		stroke:white;
   		stroke-width:1;
   		fill: white;
   }
   </style>
   <rect fill="black" width="30" height="30" />
    <g id="layer1">
	<path d="M 10 10.5 A 9 9 0 1 0 20 10.5 H 10" fill="none" />
	<circle cx="12" cy="16" r="1" />
	<circle cx="18" cy="16" r="1" />
	<path d="M 11 22 A 5 3 0 0 0 19 22" fill="none" />
	<!-- CROWN -->
	<path d="M 10 10.5 V 4 L 12.5 7 L 15 4 L 17.5 7 L 20 4 V 10.5" fill="none" />
	<!-- HAIR -->
	<path d="M 10 25.5 A 9 9 0 0 1 10 10.5 A 12 10 0 0 0 5 25.5 H 10" stroke-width="0" fill-opacity="0.7" />
	<path d="M 20 25.5 A 9 9 0 0 0 20 10.5 A 12 10 0 0 1 25 25.5 H 20" stroke-width="0" fill-opacity="0.7" />

  </g>
</svg>